<svg xmlns="http://www.w3.org/2000/svg" viewBox="-30.940 -26.000 152.000 152.000" width="16" height="16" role="img" aria-label="BİEV MARBLE">
<title>BİEV MARBLE</title>
<desc>BİEV MARBLE — asıl logo. Kontur brand/logo-beyaz.png alfa kanalından vektörleştirilmiştir.</desc>
<clipPath id="acme-sil-clip"><rect x="-30.940" y="-26.000" width="121.060" height="152.000"/></clipPath>
<path d="M 50.446 0.125 C 50.446 0.909, 49.888 3.538, 49.667 3.795 C 49.509 3.979, 49.31 4.551, 49.226 5.065 C 49.141 5.58, 48.929 6.12, 48.755 6.265 C 48.58 6.409, 48.438 6.743, 48.438 7.006 C 48.438 7.269, 48.25 7.834, 48.021 8.262 C 47.792 8.69, 47.529 9.392, 47.438 9.821 C 47.346 10.251, 47.144 10.753, 46.987 10.938 C 46.83 11.122, 46.634 11.592, 46.551 11.982 C 46.468 12.373, 46.266 12.803, 46.103 12.939 C 45.939 13.075, 45.742 13.523, 45.665 13.936 C 45.587 14.349, 45.386 14.801, 45.218 14.941 C 45.05 15.08, 44.849 15.532, 44.772 15.945 C 44.694 16.358, 44.49 16.814, 44.317 16.957 C 44.144 17.101, 43.934 17.538, 43.851 17.928 C 43.768 18.319, 43.572 18.789, 43.415 18.973 C 43.258 19.157, 43.062 19.627, 42.979 20.018 C 42.896 20.408, 42.684 20.848, 42.508 20.994 C 42.332 21.14, 42.188 21.403, 42.188 21.578 C 42.188 21.752, 41.936 22.367, 41.629 22.944 C 41.323 23.52, 41.071 24.156, 41.071 24.357 C 41.071 24.558, 40.927 24.842, 40.751 24.988 C 40.575 25.134, 40.363 25.574, 40.28 25.964 C 40.197 26.355, 40.001 26.825, 39.844 27.009 C 39.687 27.193, 39.491 27.663, 39.408 28.054 C 39.325 28.444, 39.123 28.875, 38.96 29.01 C 38.796 29.146, 38.599 29.595, 38.522 30.008 C 38.444 30.421, 38.24 30.876, 38.067 31.02 C 37.894 31.163, 37.684 31.6, 37.601 31.991 C 37.518 32.381, 37.322 32.852, 37.165 33.036 C 37.008 33.22, 36.812 33.69, 36.729 34.081 C 36.646 34.471, 36.445 34.902, 36.281 35.037 C 36.118 35.173, 35.921 35.622, 35.843 36.035 C 35.766 36.448, 35.565 36.9, 35.397 37.039 C 35.229 37.179, 35.028 37.631, 34.95 38.044 C 34.873 38.456, 34.672 38.908, 34.504 39.048 C 34.336 39.188, 34.135 39.64, 34.058 40.052 C 33.98 40.465, 33.779 40.917, 33.611 41.057 C 33.443 41.196, 33.242 41.648, 33.165 42.061 C 33.087 42.474, 32.886 42.926, 32.718 43.066 C 32.55 43.205, 32.349 43.657, 32.272 44.07 C 32.194 44.483, 31.983 44.944, 31.802 45.094 C 31.621 45.244, 31.47 45.531, 31.466 45.73 C 31.463 45.93, 31.212 46.596, 30.91 47.21 C 30.608 47.824, 30.36 48.439, 30.359 48.578 C 30.358 48.716, 30.217 48.946, 30.046 49.088 C 29.874 49.23, 29.671 49.684, 29.593 50.097 C 29.516 50.51, 29.304 50.971, 29.124 51.121 C 28.943 51.271, 28.795 51.539, 28.795 51.715 C 28.795 52.01, 28.334 53.112, 27.216 55.493 C 26.979 55.998, 26.786 56.563, 26.786 56.749 C 26.786 56.936, 26.635 57.213, 26.451 57.366 C 26.267 57.519, 26.116 57.788, 26.116 57.963 C 26.116 58.139, 25.926 58.654, 25.694 59.108 C 24.776 60.904, 24.107 62.45, 24.107 62.774 C 24.107 62.962, 23.963 63.235, 23.787 63.381 C 23.61 63.527, 23.398 63.967, 23.315 64.357 C 23.232 64.748, 23.036 65.218, 22.879 65.402 C 22.723 65.586, 22.527 66.056, 22.444 66.447 C 22.36 66.837, 22.159 67.268, 21.996 67.403 C 21.832 67.539, 21.635 67.988, 21.558 68.401 C 21.48 68.814, 21.275 69.269, 21.102 69.413 C 20.929 69.556, 20.72 69.993, 20.637 70.384 C 20.554 70.774, 20.358 71.244, 20.201 71.429 C 20.044 71.613, 19.848 72.083, 19.765 72.473 C 19.682 72.864, 19.48 73.294, 19.317 73.43 C 19.154 73.566, 18.956 74.015, 18.879 74.427 C 18.802 74.84, 18.601 75.292, 18.433 75.432 C 18.265 75.571, 18.064 76.023, 17.986 76.436 C 17.909 76.849, 17.708 77.301, 17.54 77.441 C 17.372 77.58, 17.171 78.032, 17.093 78.445 C 17.016 78.858, 16.815 79.31, 16.647 79.45 C 16.479 79.589, 16.278 80.041, 16.2 80.454 C 16.123 80.867, 15.922 81.319, 15.754 81.459 C 15.586 81.598, 15.385 82.05, 15.308 82.463 C 15.23 82.876, 15.019 83.337, 14.838 83.487 C 14.657 83.637, 14.506 83.923, 14.502 84.123 C 14.498 84.323, 14.248 84.989, 13.946 85.603 C 13.644 86.217, 13.396 86.822, 13.395 86.948 C 13.394 87.074, 13.192 87.35, 12.946 87.56 C 12.701 87.77, 12.5 88.095, 12.5 88.281 C 12.5 88.824, 10.967 90.872, 9.744 91.964 C 9.125 92.517, 8.44 93.142, 8.221 93.354 C 8.003 93.565, 7.545 93.805, 7.204 93.886 C 6.864 93.967, 6.423 94.173, 6.225 94.345 C 6.027 94.516, 5.324 94.745, 4.663 94.854 C 4.001 94.963, 3.209 95.149, 2.902 95.266 C 2.595 95.384, 1.817 95.552, 1.172 95.641 C 0.081 95.79, 0 95.844, 0 96.414 C 0 97.512, 0.451 97.545, 15.468 97.545 C 30.346 97.545, 30.044 97.569, 29.743 96.377 C 29.585 95.753, 29.294 95.544, 28.571 95.538 C 28.265 95.535, 27.744 95.392, 27.415 95.221 C 27.085 95.049, 26.53 94.845, 26.18 94.769 C 25.252 94.565, 23.545 92.804, 23.289 91.786 C 23.073 90.925, 23.401 87.962, 23.771 87.434 C 23.956 87.17, 24.108 86.801, 24.109 86.613 C 24.11 86.426, 24.358 85.77, 24.66 85.156 C 24.962 84.542, 25.213 83.877, 25.216 83.677 C 25.22 83.477, 25.374 83.189, 25.558 83.036 C 25.742 82.883, 25.894 82.594, 25.895 82.395 C 25.896 82.195, 26.144 81.529, 26.446 80.915 C 26.748 80.301, 26.998 79.636, 27.002 79.436 C 27.006 79.236, 27.147 78.958, 27.316 78.818 C 27.485 78.678, 27.685 78.176, 27.76 77.703 C 27.836 77.231, 28.049 76.718, 28.235 76.564 C 28.42 76.41, 28.575 76.121, 28.578 75.921 C 28.582 75.721, 28.832 75.056, 29.134 74.442 C 29.436 73.828, 29.684 73.196, 29.685 73.038 C 29.687 72.879, 29.907 72.452, 30.176 72.089 L 30.664 71.429 45.563 71.429 C 54.297 71.429, 60.69 71.515, 61.013 71.638 C 61.426 71.795, 61.601 72.071, 61.714 72.741 C 61.797 73.233, 62.005 73.751, 62.177 73.894 C 62.348 74.036, 62.554 74.519, 62.634 74.967 C 62.714 75.415, 62.909 75.932, 63.067 76.116 C 63.226 76.3, 63.424 76.824, 63.509 77.28 C 63.594 77.736, 63.8 78.223, 63.968 78.363 C 64.136 78.502, 64.34 78.983, 64.42 79.431 C 64.5 79.879, 64.695 80.396, 64.853 80.58 C 65.011 80.765, 65.21 81.288, 65.295 81.744 C 65.379 82.2, 65.586 82.688, 65.754 82.827 C 65.922 82.967, 66.125 83.447, 66.205 83.895 C 66.285 84.343, 66.478 84.86, 66.633 85.045 C 66.788 85.229, 66.987 85.731, 67.076 86.161 C 67.165 86.59, 67.38 87.104, 67.555 87.303 C 67.759 87.535, 67.92 88.449, 68.007 89.872 C 68.14 92.065, 68.137 92.087, 67.497 92.86 C 67.143 93.288, 66.766 93.676, 66.66 93.721 C 66.554 93.767, 66.306 93.992, 66.109 94.223 C 65.912 94.453, 65.396 94.705, 64.962 94.783 C 64.529 94.862, 63.903 95.063, 63.571 95.231 C 63.24 95.398, 62.725 95.536, 62.427 95.536 C 62.129 95.536, 61.764 95.681, 61.616 95.86 C 61.324 96.211, 61.501 97.1, 61.916 97.374 C 62.053 97.464, 71.62 97.539, 83.176 97.541 C 105.862 97.545, 104.826 97.6, 104.649 96.408 C 104.609 96.138, 104.425 95.842, 104.241 95.752 C 103.804 95.538, 101.96 95.081, 100.585 94.847 C 99.987 94.744, 99.334 94.52, 99.135 94.347 C 98.935 94.174, 98.521 93.971, 98.214 93.895 C 97.347 93.681, 94.237 90.93, 93.871 90.054 C 93.694 89.631, 93.448 89.286, 93.325 89.286 C 93.202 89.286, 93.035 88.934, 92.954 88.504 C 92.873 88.075, 92.713 87.723, 92.598 87.723 C 92.482 87.723, 92.236 87.397, 92.051 86.998 C 91.866 86.599, 91.571 86.021, 91.396 85.714 C 91.221 85.407, 91.077 84.993, 91.075 84.793 C 91.073 84.593, 90.927 84.31, 90.751 84.164 C 90.575 84.017, 90.367 83.61, 90.29 83.259 C 90.213 82.908, 90.016 82.509, 89.853 82.373 C 89.689 82.238, 89.492 81.789, 89.415 81.376 C 89.337 80.963, 89.136 80.511, 88.968 80.372 C 88.8 80.232, 88.599 79.78, 88.522 79.367 C 88.444 78.954, 88.236 78.496, 88.058 78.348 C 87.88 78.201, 87.672 77.742, 87.594 77.329 C 87.517 76.916, 87.32 76.467, 87.156 76.332 C 86.993 76.196, 86.789 75.766, 86.704 75.375 C 86.619 74.985, 86.361 74.426, 86.132 74.133 C 85.902 73.84, 85.714 73.425, 85.714 73.212 C 85.714 72.998, 85.566 72.7, 85.385 72.55 C 85.204 72.399, 84.993 71.939, 84.916 71.526 C 84.838 71.113, 84.635 70.658, 84.463 70.516 C 84.292 70.374, 84.152 70.154, 84.152 70.028 C 84.152 69.763, 83.238 67.688, 82.586 66.474 C 82.342 66.02, 82.143 65.505, 82.143 65.329 C 82.143 65.154, 81.995 64.887, 81.814 64.737 C 81.633 64.587, 81.422 64.126, 81.344 63.713 C 81.267 63.3, 81.07 62.851, 80.906 62.716 C 80.743 62.58, 80.541 62.15, 80.458 61.759 C 80.375 61.369, 80.18 60.898, 80.024 60.714 C 79.868 60.53, 79.666 60.128, 79.576 59.821 C 79.485 59.515, 79.284 59.113, 79.128 58.929 C 78.972 58.744, 78.777 58.274, 78.694 57.884 C 78.61 57.493, 78.401 57.056, 78.228 56.913 C 78.055 56.769, 77.85 56.314, 77.773 55.901 C 77.695 55.488, 77.498 55.039, 77.335 54.903 C 77.171 54.768, 76.97 54.337, 76.887 53.947 C 76.804 53.556, 76.608 53.086, 76.452 52.902 C 76.296 52.718, 76.095 52.316, 76.004 52.009 C 75.914 51.702, 75.713 51.3, 75.556 51.116 C 75.4 50.932, 75.205 50.462, 75.122 50.071 C 75.039 49.681, 74.838 49.25, 74.674 49.115 C 74.511 48.979, 74.314 48.53, 74.236 48.117 C 74.159 47.704, 73.947 47.244, 73.767 47.093 C 73.585 46.943, 73.438 46.717, 73.438 46.59 C 73.438 46.335, 72.537 44.311, 71.863 43.05 C 71.624 42.604, 71.429 42.089, 71.429 41.905 C 71.429 41.722, 71.281 41.45, 71.1 41.3 C 70.919 41.149, 70.707 40.689, 70.63 40.276 C 70.552 39.863, 70.349 39.408, 70.177 39.266 C 70.006 39.124, 69.866 38.913, 69.866 38.798 C 69.866 38.562, 68.938 36.471, 68.286 35.238 C 68.05 34.791, 67.857 34.276, 67.857 34.093 C 67.857 33.91, 67.713 33.64, 67.537 33.494 C 67.36 33.348, 67.148 32.908, 67.065 32.518 C 66.982 32.127, 66.787 31.657, 66.631 31.473 C 66.475 31.289, 66.273 30.887, 66.183 30.58 C 66.093 30.273, 65.891 29.872, 65.735 29.688 C 65.579 29.503, 65.384 29.033, 65.301 28.643 C 65.218 28.252, 65.016 27.822, 64.853 27.686 C 64.689 27.55, 64.492 27.102, 64.415 26.689 C 64.337 26.276, 64.129 25.817, 63.951 25.67 C 63.773 25.522, 63.565 25.064, 63.487 24.651 C 63.41 24.238, 63.206 23.783, 63.035 23.641 C 62.863 23.499, 62.723 23.259, 62.723 23.108 C 62.723 22.958, 62.472 22.362, 62.165 21.785 C 61.858 21.208, 61.607 20.602, 61.607 20.44 C 61.607 20.277, 61.459 20.021, 61.278 19.871 C 61.097 19.721, 60.886 19.26, 60.808 18.847 C 60.731 18.434, 60.527 17.98, 60.356 17.838 C 60.185 17.696, 60.045 17.476, 60.045 17.349 C 60.045 17.094, 59.144 15.07, 58.47 13.809 C 58.231 13.363, 58.036 12.848, 58.036 12.664 C 58.036 12.481, 57.888 12.209, 57.707 12.058 C 57.526 11.908, 57.315 11.448, 57.237 11.035 C 57.16 10.622, 56.963 10.173, 56.799 10.037 C 56.636 9.902, 56.434 9.471, 56.351 9.081 C 56.268 8.69, 56.073 8.22, 55.917 8.036 C 55.761 7.852, 55.559 7.45, 55.469 7.143 C 55.378 6.836, 55.177 6.434, 55.021 6.25 C 54.865 6.066, 54.669 5.596, 54.586 5.205 C 54.503 4.815, 54.298 4.381, 54.129 4.241 C 53.961 4.101, 53.756 3.667, 53.673 3.277 C 53.59 2.886, 53.374 2.399, 53.193 2.194 C 53.012 1.988, 52.809 1.411, 52.742 0.91 L 52.62 0 51.533 0 C 50.935 0, 50.446 0.056, 50.446 0.125 M 238.93 1.11 C 238.285 1.371, 237.8 3.306, 237.625 6.311 C 237.548 7.633, 237.377 8.989, 237.246 9.324 C 237.114 9.659, 236.916 11.173, 236.807 12.688 C 236.697 14.203, 236.466 15.961, 236.292 16.594 C 236.119 17.227, 235.918 18.754, 235.847 19.986 C 235.776 21.219, 235.577 22.725, 235.405 23.335 C 235.232 23.944, 235.029 25.486, 234.953 26.763 C 234.877 28.039, 234.675 29.596, 234.503 30.222 C 234.331 30.849, 234.133 32.431, 234.063 33.737 C 233.993 35.044, 233.823 36.4, 233.685 36.751 C 233.547 37.101, 233.345 38.628, 233.235 40.143 C 233.126 41.658, 232.894 43.416, 232.72 44.05 C 232.546 44.683, 232.341 46.227, 232.264 47.481 C 232.187 48.735, 231.988 50.242, 231.822 50.829 C 231.656 51.417, 231.461 52.966, 231.388 54.273 C 231.316 55.579, 231.144 56.935, 231.006 57.286 C 230.869 57.637, 230.666 59.164, 230.557 60.679 C 230.447 62.194, 230.216 63.952, 230.042 64.585 C 229.869 65.219, 229.67 66.716, 229.601 67.914 C 229.533 69.111, 229.333 70.668, 229.159 71.373 C 228.984 72.079, 228.781 73.665, 228.708 74.897 C 228.635 76.129, 228.434 77.636, 228.262 78.245 C 228.089 78.854, 227.893 80.357, 227.825 81.585 C 227.758 82.813, 227.543 84.42, 227.347 85.156 C 227.151 85.893, 226.937 87.042, 226.872 87.709 C 226.807 88.376, 226.61 89.126, 226.435 89.377 C 226.259 89.627, 226.116 90.002, 226.116 90.21 C 226.116 90.85, 223.511 93.628, 222.661 93.894 C 222.413 93.971, 221.97 94.222, 221.677 94.45 C 221.385 94.679, 220.82 94.866, 220.422 94.866 C 220.024 94.866, 219.272 95.017, 218.75 95.201 C 218.228 95.385, 217.315 95.536, 216.721 95.536 C 215.881 95.536, 215.589 95.632, 215.41 95.967 C 215.097 96.551, 215.118 96.783, 215.52 97.184 C 215.818 97.483, 217.583 97.527, 229.61 97.54 C 239.607 97.55, 243.443 97.484, 243.666 97.298 C 244.098 96.94, 244.048 96.036, 243.583 95.798 C 243.368 95.688, 242.707 95.583, 242.115 95.565 C 239.321 95.477, 236.83 92.693, 236.83 89.656 C 236.83 88.898, 236.937 87.927, 237.067 87.498 C 237.197 87.07, 237.396 85.262, 237.51 83.482 C 237.624 81.702, 237.863 79.593, 238.041 78.795 C 238.219 77.997, 238.417 76.178, 238.481 74.753 C 238.544 73.328, 238.744 71.469, 238.925 70.623 C 239.105 69.777, 239.31 67.91, 239.381 66.475 C 239.452 65.039, 239.65 63.231, 239.821 62.457 C 239.993 61.683, 240.195 59.794, 240.27 58.259 C 240.346 56.724, 240.556 54.916, 240.737 54.241 C 240.918 53.566, 241.072 52.26, 241.079 51.339 C 241.094 49.328, 241.367 46.889, 241.722 45.592 C 242.033 44.456, 242.673 44.296, 243.061 45.257 C 243.197 45.594, 243.554 46.272, 243.854 46.763 C 244.153 47.254, 244.526 47.907, 244.683 48.214 C 244.839 48.521, 245.273 49.224, 245.647 49.777 C 246.021 50.329, 246.455 51.032, 246.612 51.339 C 246.769 51.646, 247.118 52.261, 247.388 52.705 C 247.658 53.149, 248.281 54.188, 248.772 55.015 C 249.263 55.841, 249.886 56.884, 250.157 57.332 C 250.427 57.781, 250.776 58.398, 250.933 58.705 C 251.089 59.012, 251.523 59.715, 251.897 60.268 C 252.271 60.82, 252.707 61.523, 252.866 61.83 C 253.335 62.736, 253.88 63.662, 254.576 64.732 C 255.271 65.802, 255.817 66.729, 256.286 67.634 C 256.445 67.941, 256.9 68.663, 257.298 69.239 C 257.695 69.815, 258.085 70.544, 258.164 70.858 C 258.243 71.172, 258.402 71.429, 258.518 71.429 C 258.633 71.429, 258.881 71.755, 259.067 72.154 C 259.253 72.553, 259.651 73.281, 259.95 73.772 C 260.25 74.263, 260.617 74.942, 260.765 75.279 C 260.914 75.617, 261.113 75.893, 261.207 75.893 C 261.301 75.893, 261.533 76.219, 261.724 76.618 C 261.914 77.017, 262.313 77.746, 262.61 78.237 C 262.908 78.728, 263.301 79.456, 263.484 79.855 C 263.667 80.254, 263.911 80.58, 264.027 80.58 C 264.143 80.58, 264.302 80.837, 264.381 81.151 C 264.459 81.465, 264.849 82.194, 265.247 82.77 C 265.645 83.346, 266.1 84.068, 266.259 84.375 C 266.738 85.3, 267.28 86.218, 267.975 87.277 C 268.337 87.829, 268.764 88.532, 268.923 88.839 C 269.082 89.146, 269.435 89.761, 269.707 90.205 C 270.167 90.957, 271.394 92.998, 272.433 94.742 C 273.642 96.771, 274.107 97.617, 274.107 97.787 C 274.107 97.89, 274.298 98.153, 274.532 98.373 C 274.766 98.593, 274.992 99.023, 275.035 99.33 C 275.105 99.842, 275.218 99.894, 276.378 99.955 L 277.644 100.021 277.777 98.727 C 277.85 98.015, 278.019 97.132, 278.152 96.763 C 278.286 96.395, 278.49 95.544, 278.606 94.871 C 278.722 94.199, 278.954 93.496, 279.122 93.309 C 279.289 93.122, 279.496 92.596, 279.58 92.14 C 279.665 91.684, 279.874 91.194, 280.046 91.052 C 280.217 90.91, 280.357 90.619, 280.357 90.404 C 280.357 90.191, 280.558 89.76, 280.804 89.448 C 281.049 89.136, 281.25 88.751, 281.25 88.593 C 281.25 88.435, 281.479 87.948, 281.758 87.512 C 282.635 86.141, 282.812 85.844, 283.161 85.156 C 283.348 84.788, 283.74 84.085, 284.034 83.594 C 284.327 83.103, 284.729 82.4, 284.926 82.031 C 285.123 81.663, 285.506 80.995, 285.778 80.546 C 286.05 80.098, 286.651 79.073, 287.115 78.268 C 287.578 77.464, 288.048 76.75, 288.158 76.681 C 288.268 76.613, 288.426 76.25, 288.508 75.875 C 288.591 75.5, 288.79 75.142, 288.952 75.08 C 289.113 75.018, 289.308 74.718, 289.385 74.413 C 289.461 74.108, 289.849 73.387, 290.247 72.811 C 290.645 72.235, 291.095 71.512, 291.248 71.205 C 291.402 70.898, 291.769 70.246, 292.065 69.754 C 292.361 69.263, 292.762 68.56, 292.955 68.192 C 293.148 67.824, 293.55 67.121, 293.848 66.629 C 294.146 66.138, 294.547 65.435, 294.741 65.067 C 294.934 64.699, 295.339 63.996, 295.641 63.504 C 295.943 63.013, 296.348 62.31, 296.541 61.942 C 296.735 61.574, 297.133 60.871, 297.427 60.379 C 297.72 59.888, 298.121 59.185, 298.319 58.817 C 298.515 58.449, 298.922 57.746, 299.222 57.254 C 299.522 56.763, 299.893 56.11, 300.046 55.804 C 300.199 55.497, 300.65 54.774, 301.048 54.198 C 301.445 53.622, 301.837 52.886, 301.919 52.562 C 302 52.238, 302.195 51.923, 302.352 51.863 C 302.51 51.803, 302.697 51.519, 302.769 51.233 C 302.841 50.946, 303.242 50.175, 303.661 49.519 C 304.08 48.863, 304.632 47.993, 304.889 47.586 C 305.146 47.179, 305.416 46.608, 305.488 46.319 C 305.561 46.029, 305.753 45.741, 305.914 45.679 C 306.076 45.617, 306.277 45.252, 306.361 44.869 C 306.468 44.383, 306.626 44.193, 306.884 44.242 C 307.45 44.35, 308.004 46.989, 308.166 50.335 C 308.242 51.931, 308.446 53.805, 308.618 54.5 C 308.79 55.194, 308.99 57.002, 309.064 58.517 C 309.138 60.033, 309.338 61.906, 309.509 62.68 C 309.681 63.454, 309.878 65.263, 309.947 66.698 C 310.016 68.133, 310.22 70.019, 310.4 70.887 C 310.58 71.755, 310.818 73.915, 310.93 75.686 C 311.041 77.457, 311.24 79.258, 311.373 79.688 C 311.505 80.117, 311.669 81.674, 311.738 83.147 C 311.807 84.621, 312.007 86.499, 312.182 87.321 C 312.765 90.062, 312.443 91.78, 310.987 93.697 C 310.254 94.662, 308.497 95.525, 307.183 95.566 C 306.608 95.583, 305.963 95.688, 305.748 95.798 C 305.3 96.027, 305.229 96.881, 305.625 97.277 C 305.83 97.481, 310.533 97.539, 325.547 97.522 C 336.356 97.51, 345.452 97.431, 345.759 97.346 C 346.344 97.184, 346.575 96.538, 346.235 96.015 C 346.123 95.842, 345.374 95.64, 344.473 95.542 C 343.612 95.447, 342.797 95.302, 342.662 95.218 C 342.527 95.135, 341.883 94.98, 341.23 94.874 C 339.84 94.648, 338.665 93.992, 337.39 92.732 C 335.991 91.35, 335.095 89.883, 334.916 88.683 C 334.828 88.094, 334.618 87.4, 334.45 87.142 C 334.275 86.874, 334.059 85.583, 333.947 84.129 C 333.84 82.73, 333.64 81.302, 333.505 80.957 C 333.37 80.612, 333.2 79.306, 333.128 78.055 C 333.056 76.804, 332.857 75.27, 332.685 74.645 C 332.515 74.02, 332.282 72.313, 332.17 70.85 C 332.058 69.388, 331.86 67.923, 331.731 67.593 C 331.601 67.264, 331.432 65.958, 331.354 64.692 C 331.276 63.425, 331.072 61.877, 330.901 61.252 C 330.729 60.627, 330.497 58.92, 330.384 57.458 C 330.272 55.996, 330.074 54.53, 329.945 54.2 C 329.816 53.871, 329.646 52.565, 329.568 51.299 C 329.491 50.032, 329.286 48.484, 329.115 47.859 C 328.943 47.235, 328.711 45.527, 328.598 44.065 C 328.486 42.603, 328.287 41.132, 328.155 40.797 C 328.024 40.462, 327.853 39.106, 327.775 37.784 C 327.697 36.461, 327.489 34.877, 327.312 34.263 C 327.136 33.65, 326.935 32.143, 326.865 30.915 C 326.796 29.688, 326.598 28.185, 326.426 27.576 C 326.253 26.967, 326.054 25.46, 325.983 24.227 C 325.912 22.995, 325.714 21.475, 325.543 20.85 C 325.372 20.226, 325.14 18.518, 325.027 17.056 C 324.915 15.594, 324.717 14.128, 324.588 13.799 C 324.458 13.469, 324.289 12.163, 324.211 10.897 C 324.133 9.63, 323.923 8.06, 323.744 7.408 C 323.564 6.756, 323.356 5.227, 323.282 4.009 C 323.131 1.535, 322.931 1.173, 321.651 1.067 C 320.837 1, 320.882 0.939, 318.862 4.799 C 318.669 5.167, 318.289 5.832, 318.017 6.276 C 317.745 6.72, 317.121 7.76, 316.629 8.586 C 316.138 9.412, 315.514 10.455, 315.242 10.904 C 314.97 11.352, 314.59 12.02, 314.396 12.388 C 314.203 12.757, 313.804 13.46, 313.511 13.951 C 313.217 14.442, 312.816 15.145, 312.619 15.513 C 312.422 15.882, 312.039 16.55, 311.767 16.998 C 311.495 17.446, 310.893 18.472, 310.43 19.276 C 309.967 20.081, 309.497 20.795, 309.387 20.863 C 309.276 20.931, 309.12 21.288, 309.04 21.654 C 308.959 22.021, 308.802 22.321, 308.691 22.321 C 308.579 22.321, 308.335 22.648, 308.149 23.047 C 307.962 23.446, 307.566 24.174, 307.268 24.665 C 306.971 25.156, 306.566 25.859, 306.369 26.228 C 306.172 26.596, 305.789 27.264, 305.517 27.713 C 305.245 28.161, 304.643 29.186, 304.18 29.991 C 303.717 30.795, 303.247 31.509, 303.137 31.578 C 303.026 31.646, 302.87 32.002, 302.79 32.369 C 302.709 32.735, 302.552 33.036, 302.441 33.036 C 302.329 33.036, 302.085 33.362, 301.899 33.761 C 301.712 34.16, 301.316 34.888, 301.018 35.379 C 300.721 35.871, 300.316 36.574, 300.119 36.942 C 299.922 37.31, 299.515 38.013, 299.215 38.504 C 298.915 38.996, 298.544 39.648, 298.391 39.955 C 298.238 40.262, 297.788 40.985, 297.39 41.561 C 296.992 42.137, 296.602 42.865, 296.523 43.179 C 296.445 43.493, 296.292 43.75, 296.184 43.75 C 296.076 43.75, 295.832 44.123, 295.642 44.579 C 295.451 45.035, 295.222 45.462, 295.132 45.528 C 295.042 45.594, 294.843 45.898, 294.69 46.205 C 294.536 46.512, 294.165 47.165, 293.865 47.656 C 293.565 48.147, 293.156 48.85, 292.957 49.219 C 292.124 50.76, 291.814 51.281, 291.128 52.296 C 290.731 52.883, 290.346 53.604, 290.272 53.898 C 290.199 54.192, 290.01 54.481, 289.852 54.542 C 289.695 54.602, 289.502 54.907, 289.424 55.22 C 289.345 55.532, 288.956 56.269, 288.559 56.856 C 287.873 57.87, 287.564 58.391, 286.73 59.933 C 286.531 60.301, 286.123 61.004, 285.823 61.496 C 285.522 61.987, 285.151 62.64, 284.998 62.946 C 284.845 63.253, 284.599 63.58, 284.453 63.673 C 284.306 63.766, 284.119 64.15, 284.037 64.525 C 283.954 64.901, 283.754 65.259, 283.593 65.321 C 283.431 65.383, 283.24 65.668, 283.169 65.954 C 282.99 66.666, 281.895 68.304, 281.601 68.3 C 281.025 68.292, 280.454 67.56, 279.647 65.792 C 279.493 65.455, 279.289 65.179, 279.195 65.179 C 279.101 65.179, 278.867 64.852, 278.674 64.453 C 278.227 63.527, 277.717 62.646, 276.897 61.384 C 276.538 60.831, 276.09 60.106, 275.901 59.771 C 275.713 59.437, 275.156 58.502, 274.665 57.693 C 274.174 56.884, 273.618 55.952, 273.429 55.622 C 273.24 55.292, 272.792 54.57, 272.433 54.018 C 271.613 52.756, 271.103 51.875, 270.656 50.949 C 270.464 50.55, 270.229 50.223, 270.135 50.223 C 270.041 50.223, 269.841 49.947, 269.692 49.609 C 269.25 48.616, 268.659 47.669, 268.359 47.478 C 268.206 47.379, 268.08 47.189, 268.08 47.054 C 268.08 46.92, 267.705 46.247, 267.246 45.559 C 266.42 44.319, 265.923 43.487, 265.366 42.411 C 265.207 42.104, 264.771 41.401, 264.397 40.848 C 264.023 40.296, 263.593 39.593, 263.441 39.286 C 263.29 38.979, 262.716 38.025, 262.166 37.165 C 261.617 36.306, 261.039 35.352, 260.882 35.045 C 260.726 34.738, 260.301 34.035, 259.939 33.482 C 259.125 32.241, 258.611 31.356, 258.156 30.413 C 257.964 30.014, 257.729 29.688, 257.635 29.688 C 257.541 29.688, 257.341 29.411, 257.192 29.074 C 256.798 28.187, 256.197 27.22, 255.748 26.749 C 255.533 26.523, 255.357 26.238, 255.357 26.114 C 255.357 25.99, 255.028 25.412, 254.627 24.83 C 254.225 24.248, 253.766 23.521, 253.607 23.214 C 253.128 22.289, 252.586 21.371, 251.892 20.313 C 251.529 19.76, 251.105 19.057, 250.948 18.75 C 250.791 18.443, 250.214 17.489, 249.664 16.629 C 249.115 15.77, 248.541 14.816, 248.389 14.509 C 248.237 14.202, 247.807 13.499, 247.433 12.946 C 247.059 12.394, 246.632 11.666, 246.484 11.328 C 246.336 10.99, 246.12 10.714, 246.005 10.714 C 245.889 10.714, 245.728 10.414, 245.648 10.046 C 245.567 9.678, 245.373 9.302, 245.217 9.209 C 244.957 9.054, 244.763 8.744, 243.928 7.146 C 243.769 6.841, 243.463 6.414, 243.248 6.197 C 243.033 5.981, 242.857 5.702, 242.857 5.578 C 242.857 5.454, 242.506 4.852, 242.076 4.241 C 241.646 3.63, 241.295 2.988, 241.295 2.814 C 241.295 2.422, 239.96 0.888, 239.635 0.907 C 239.504 0.915, 239.187 1.006, 238.93 1.11 M 423.281 1.127 C 422.765 1.229, 422.137 1.422, 421.887 1.556 C 421.637 1.69, 420.603 1.855, 419.589 1.923 C 418.575 1.991, 417.294 2.205, 416.741 2.398 C 415.857 2.708, 412.896 2.76, 392.076 2.833 C 379.063 2.878, 366.128 2.913, 363.332 2.909 L 358.249 2.902 358.009 3.429 C 357.825 3.834, 357.849 4.111, 358.115 4.625 C 358.451 5.275, 358.516 5.297, 360.425 5.408 C 362.403 5.524, 363.537 5.948, 364.535 6.946 C 364.735 7.146, 364.989 7.348, 365.099 7.394 C 365.548 7.583, 366.948 9.568, 367.441 10.714 L 367.969 11.942 367.969 50.456 C 367.969 86.761, 367.946 89.005, 367.578 89.567 C 367.363 89.895, 367.188 90.277, 367.188 90.417 C 367.188 90.558, 366.936 90.971, 366.629 91.335 C 366.323 91.7, 366.071 92.123, 366.071 92.274 C 366.071 92.818, 363.032 94.857, 362.214 94.862 C 361.872 94.864, 361.232 95.017, 360.792 95.201 C 360.351 95.385, 359.613 95.536, 359.152 95.536 C 358.691 95.536, 358.193 95.681, 358.045 95.86 C 357.753 96.211, 357.929 97.1, 358.345 97.374 C 358.482 97.464, 374.08 97.539, 393.009 97.541 C 423.211 97.544, 427.464 97.504, 427.756 97.212 C 428.176 96.792, 428.492 95.763, 428.676 94.217 C 428.755 93.554, 428.95 92.75, 429.11 92.432 C 429.271 92.113, 429.465 91.222, 429.542 90.452 C 429.619 89.682, 429.82 88.778, 429.99 88.443 C 430.159 88.108, 430.368 87.188, 430.455 86.398 C 430.541 85.608, 430.742 84.704, 430.9 84.389 C 431.058 84.075, 431.251 83.187, 431.328 82.416 C 431.404 81.646, 431.606 80.742, 431.775 80.407 C 431.945 80.073, 432.154 79.153, 432.24 78.363 C 432.327 77.572, 432.529 76.668, 432.689 76.354 C 432.849 76.039, 433.05 75.109, 433.135 74.288 C 433.224 73.44, 433.429 72.681, 433.61 72.531 C 433.824 72.354, 433.929 71.807, 433.929 70.869 C 433.929 69.525, 433.906 69.467, 433.319 69.355 C 432.41 69.181, 431.563 69.881, 431.393 70.947 C 431.317 71.426, 431.11 71.936, 430.935 72.082 C 430.759 72.228, 430.549 72.737, 430.469 73.214 C 430.388 73.691, 430.179 74.2, 430.005 74.345 C 429.83 74.49, 429.688 74.783, 429.688 74.997 C 429.688 75.211, 429.508 75.626, 429.288 75.919 C 429.068 76.211, 428.76 76.702, 428.603 77.009 C 427.426 79.314, 426.435 80.707, 424.309 83.047 C 422.787 84.722, 421.716 85.64, 419.782 86.929 C 418.388 87.857, 417.046 88.616, 416.798 88.616 C 416.552 88.616, 416.231 88.759, 416.086 88.933 C 415.941 89.108, 415.401 89.32, 414.887 89.404 C 414.372 89.489, 413.786 89.703, 413.584 89.881 C 413.346 90.092, 412.332 90.275, 410.682 90.405 C 409.288 90.515, 407.796 90.71, 407.368 90.838 C 406.884 90.983, 403.314 91.071, 397.961 91.071 C 390.3 91.071, 389.318 91.032, 389.198 90.718 C 389.123 90.524, 389.063 82.404, 389.063 72.673 C 389.063 55.534, 389.076 54.968, 389.489 54.594 C 389.883 54.238, 390.568 54.216, 398.25 54.319 C 407.972 54.45, 409.75 54.553, 410.265 55.02 C 410.47 55.205, 410.77 55.357, 410.932 55.357 C 411.094 55.357, 411.739 55.7, 412.365 56.119 C 414.265 57.388, 415.134 58.413, 416.079 60.491 C 416.218 60.798, 416.486 61.35, 416.674 61.719 C 416.861 62.087, 417.068 63.213, 417.132 64.22 C 417.229 65.729, 417.336 66.133, 417.742 66.514 C 418.327 67.064, 418.754 66.949, 419.251 66.108 C 419.579 65.552, 419.616 64.008, 419.617 50.871 C 419.618 39.825, 419.552 36.119, 419.346 35.705 C 419.048 35.102, 418.029 34.848, 417.54 35.253 C 417.36 35.403, 417.206 36.243, 417.137 37.463 C 417.069 38.657, 416.891 39.645, 416.686 39.973 C 416.5 40.27, 416.285 40.786, 416.207 41.119 C 416.038 41.852, 414.955 43.493, 414.034 44.414 C 413.238 45.21, 411.115 46.652, 410.739 46.652 C 410.594 46.652, 410.207 46.827, 409.879 47.042 C 409.34 47.396, 408.364 47.44, 399.498 47.508 C 392.083 47.565, 389.634 47.518, 389.387 47.313 C 388.907 46.914, 388.896 10.46, 389.377 10.062 C 389.608 9.87, 392.499 9.805, 400.259 9.819 C 412.511 9.84, 414.588 9.912, 415.508 10.35 C 415.879 10.527, 416.434 10.786, 416.741 10.927 C 418.125 11.561, 418.726 11.994, 419.987 13.263 C 421.323 14.608, 422.545 16.408, 422.545 17.033 C 422.545 17.21, 422.689 17.476, 422.865 17.622 C 423.042 17.769, 423.247 18.459, 423.321 19.156 C 423.865 24.275, 424.181 25.198, 425.297 24.918 L 425.893 24.768 425.917 17.127 C 425.93 12.925, 425.959 7.729, 425.981 5.58 C 426.004 3.432, 425.939 1.498, 425.838 1.283 C 425.637 0.856, 424.885 0.81, 423.281 1.127 M 158.594 1.346 C 157.857 1.435, 156.049 1.628, 154.576 1.774 C 153.103 1.92, 151.395 2.177, 150.781 2.344 C 150.167 2.512, 149.063 2.716, 148.326 2.799 C 147.589 2.881, 146.772 3.084, 146.509 3.249 C 146.246 3.415, 145.493 3.618, 144.835 3.702 C 144.177 3.787, 143.384 3.984, 143.073 4.141 C 142.761 4.298, 142.108 4.498, 141.622 4.585 C 141.135 4.673, 140.586 4.874, 140.402 5.033 C 140.218 5.192, 139.766 5.396, 139.397 5.486 C 139.029 5.575, 138.378 5.834, 137.95 6.061 C 137.522 6.288, 136.957 6.473, 136.694 6.473 C 136.431 6.473, 136.098 6.614, 135.956 6.786 C 135.813 6.958, 135.452 7.16, 135.153 7.235 C 134.854 7.31, 134.269 7.596, 133.852 7.871 C 132.328 8.875, 130.903 9.71, 130.385 9.903 C 130.094 10.012, 129.642 10.294, 129.381 10.529 C 128.597 11.238, 128.282 11.479, 127.24 12.172 C 126.691 12.537, 126.081 12.985, 125.884 13.17 C 125.687 13.354, 125.181 13.816, 124.761 14.197 C 124.125 14.772, 120.416 18.629, 119.29 19.885 C 119.116 20.079, 118.973 20.342, 118.973 20.468 C 118.973 20.594, 118.66 21.088, 118.277 21.565 C 117.894 22.043, 117.32 22.835, 117.002 23.326 C 116.055 24.787, 113.394 30.208, 113.386 30.691 C 113.382 30.937, 113.238 31.323, 113.067 31.55 C 112.896 31.776, 112.685 32.376, 112.6 32.884 C 112.514 33.392, 112.315 34.01, 112.158 34.258 C 112.002 34.507, 111.805 35.162, 111.722 35.714 C 111.639 36.267, 111.436 37.221, 111.27 37.835 C 111.105 38.449, 110.855 39.754, 110.716 40.737 C 110.576 41.719, 110.376 43.025, 110.27 43.638 C 110.02 45.088, 110.02 55.358, 110.27 56.808 C 110.376 57.422, 110.576 58.728, 110.714 59.71 C 110.853 60.692, 111.107 61.998, 111.28 62.612 C 111.452 63.225, 111.656 64.18, 111.733 64.732 C 111.81 65.285, 112.007 65.948, 112.17 66.206 C 112.334 66.465, 112.536 67.067, 112.621 67.546 C 112.704 68.024, 112.905 68.627, 113.067 68.885 C 113.228 69.143, 113.432 69.746, 113.521 70.224 C 113.609 70.702, 113.867 71.333, 114.095 71.626 C 114.323 71.919, 114.509 72.305, 114.509 72.484 C 114.509 72.663, 114.71 73.065, 114.955 73.377 C 115.201 73.689, 115.402 74.091, 115.402 74.269 C 115.402 74.448, 115.603 74.85, 115.848 75.162 C 116.094 75.475, 116.301 75.842, 116.309 75.979 C 116.318 76.116, 116.663 76.68, 117.078 77.232 C 117.493 77.785, 118.303 78.916, 118.878 79.747 C 120.302 81.803, 123.979 85.62, 126.314 87.468 C 128.544 89.232, 131.162 91.071, 131.442 91.071 C 131.549 91.071, 131.884 91.266, 132.186 91.504 C 132.489 91.742, 132.997 92.002, 133.316 92.082 C 133.635 92.162, 133.947 92.36, 134.009 92.521 C 134.071 92.683, 134.423 92.881, 134.791 92.962 C 135.159 93.043, 135.578 93.251, 135.721 93.424 C 135.865 93.597, 136.32 93.802, 136.733 93.879 C 137.146 93.956, 137.6 94.16, 137.743 94.331 C 137.885 94.503, 138.216 94.643, 138.479 94.643 C 138.742 94.643, 139.332 94.844, 139.79 95.089 C 140.249 95.335, 140.753 95.536, 140.912 95.536 C 141.071 95.536, 141.567 95.723, 142.016 95.952 C 142.465 96.181, 143.351 96.437, 143.985 96.521 C 144.619 96.605, 145.353 96.808, 145.616 96.972 C 145.879 97.136, 146.61 97.334, 147.24 97.412 C 147.87 97.49, 148.674 97.69, 149.026 97.858 C 149.377 98.025, 150.575 98.222, 151.686 98.294 C 152.798 98.367, 154.154 98.589, 154.7 98.788 C 156.148 99.315, 172.803 99.332, 174.33 98.808 C 174.883 98.618, 175.887 98.393, 176.563 98.308 C 177.238 98.223, 178.064 98.015, 178.398 97.846 C 178.733 97.677, 179.637 97.477, 180.407 97.4 C 181.178 97.324, 181.959 97.133, 182.143 96.976 C 182.327 96.818, 182.851 96.62, 183.307 96.536 C 183.763 96.451, 184.247 96.248, 184.382 96.085 C 184.518 95.921, 184.949 95.718, 185.339 95.632 C 185.73 95.546, 186.399 95.289, 186.827 95.06 C 187.255 94.83, 187.77 94.643, 187.972 94.643 C 188.173 94.643, 188.463 94.492, 188.616 94.308 C 188.769 94.124, 188.998 93.973, 189.125 93.973 C 189.252 93.973, 190.632 93.118, 192.193 92.072 C 195.145 90.094, 199.014 86.592, 200.08 84.933 C 200.395 84.442, 201.109 83.454, 201.666 82.737 L 202.679 81.434 202.679 79.434 C 202.679 78.334, 202.525 76.106, 202.336 74.482 C 202.148 72.859, 201.918 68.593, 201.825 65.003 C 201.66 58.663, 201.641 58.461, 201.158 57.978 C 200.692 57.512, 200.621 57.502, 200.051 57.822 C 199.523 58.119, 199.419 58.356, 199.267 59.607 C 199.171 60.4, 198.952 61.451, 198.78 61.942 C 198.608 62.433, 198.404 63.387, 198.327 64.063 C 198.25 64.738, 198.058 65.491, 197.9 65.737 C 197.742 65.982, 197.541 66.735, 197.454 67.411 C 197.366 68.086, 197.165 68.839, 197.007 69.085 C 196.849 69.33, 196.646 69.923, 196.558 70.401 C 196.469 70.879, 196.263 71.482, 196.099 71.74 C 195.936 71.998, 195.737 72.527, 195.656 72.913 C 195.576 73.3, 195.315 74, 195.076 74.467 C 194.838 74.935, 194.643 75.435, 194.643 75.578 C 194.643 75.721, 194.492 75.963, 194.308 76.116 C 194.124 76.269, 193.973 76.569, 193.973 76.783 C 193.973 76.997, 193.779 77.419, 193.541 77.722 C 193.303 78.024, 193.041 78.54, 192.958 78.868 C 192.876 79.196, 192.737 79.464, 192.649 79.464 C 192.468 79.464, 191.295 81.198, 191.295 81.465 C 191.295 81.647, 189.243 83.962, 188.032 85.146 C 186.541 86.605, 185.404 87.532, 184.408 88.099 C 183.838 88.425, 183.22 88.813, 183.036 88.962 C 182.852 89.111, 182.45 89.307, 182.143 89.397 C 181.836 89.488, 181.434 89.689, 181.25 89.845 C 181.066 90.001, 180.564 90.202, 180.134 90.29 C 179.704 90.379, 179.195 90.59, 179.002 90.76 C 178.808 90.93, 178.156 91.132, 177.551 91.209 C 176.946 91.285, 176.228 91.487, 175.955 91.657 C 175.682 91.827, 174.577 92.059, 173.499 92.171 C 172.422 92.283, 171.239 92.502, 170.871 92.657 C 169.826 93.096, 161.579 93.037, 160.268 92.581 C 159.715 92.389, 158.697 92.165, 158.005 92.085 C 157.313 92.004, 156.559 91.797, 156.331 91.624 C 156.102 91.45, 155.71 91.306, 155.46 91.302 C 155.21 91.298, 154.611 91.094, 154.129 90.848 C 153.648 90.603, 153.181 90.402, 153.092 90.402 C 152.842 90.402, 151.98 89.994, 151.073 89.448 C 150.62 89.175, 149.691 88.617, 149.008 88.209 C 147.611 87.373, 146.556 86.487, 144.432 84.363 C 141.977 81.908, 140.194 79.723, 140.183 79.154 C 140.18 79.045, 140.029 78.844, 139.846 78.708 C 139.417 78.388, 136.607 72.853, 136.607 72.328 C 136.607 72.109, 136.469 71.815, 136.3 71.675 C 136.131 71.535, 135.925 70.995, 135.842 70.476 C 135.76 69.956, 135.544 69.306, 135.364 69.031 C 135.184 68.755, 134.974 68.052, 134.898 67.468 C 134.821 66.884, 134.629 66.149, 134.471 65.834 C 134.313 65.519, 134.111 64.615, 134.023 63.825 C 133.935 63.035, 133.723 61.987, 133.551 61.496 C 133.25 60.636, 132.737 53.594, 132.714 50 C 132.694 46.829, 133.235 39.406, 133.552 38.504 C 133.725 38.013, 133.941 37.009, 134.032 36.273 C 134.123 35.536, 134.324 34.682, 134.478 34.375 C 134.633 34.068, 134.824 33.322, 134.903 32.717 C 134.982 32.112, 135.186 31.459, 135.356 31.266 C 135.527 31.073, 135.735 30.494, 135.819 29.979 C 135.903 29.465, 136.115 28.925, 136.29 28.78 C 136.464 28.635, 136.609 28.303, 136.61 28.042 C 136.612 27.781, 136.757 27.316, 136.932 27.009 C 137.107 26.702, 137.405 26.15, 137.594 25.781 C 137.783 25.413, 138.029 24.961, 138.141 24.777 C 138.253 24.593, 138.461 24.191, 138.603 23.884 C 139.46 22.029, 141.636 19.046, 143.776 16.793 C 144.97 15.535, 148.273 12.833, 149.113 12.427 C 149.294 12.34, 149.844 12.026, 150.335 11.731 C 151.706 10.905, 153.394 10.09, 154.074 9.923 C 154.412 9.84, 155.061 9.583, 155.517 9.351 C 155.972 9.119, 156.629 8.929, 156.978 8.929 C 157.326 8.929, 157.894 8.782, 158.24 8.604 C 158.925 8.249, 163.909 7.703, 166.406 7.708 C 169.048 7.714, 173.806 8.208, 174.476 8.546 C 174.826 8.722, 175.596 8.929, 176.187 9.006 C 176.778 9.084, 177.479 9.299, 177.743 9.484 C 178.008 9.67, 178.371 9.821, 178.551 9.821 C 178.73 9.821, 179.285 10.017, 179.784 10.256 C 180.283 10.496, 180.943 10.799, 181.25 10.931 C 181.557 11.063, 182.21 11.415, 182.701 11.713 C 183.192 12.01, 183.842 12.365, 184.146 12.502 C 184.449 12.638, 184.851 12.894, 185.039 13.069 C 185.226 13.244, 186.208 14.086, 187.22 14.94 C 189.33 16.719, 192.544 20.73, 192.966 22.111 C 193.058 22.411, 193.26 22.807, 193.415 22.991 C 193.57 23.175, 193.773 23.577, 193.866 23.884 C 193.959 24.191, 194.222 24.681, 194.45 24.974 C 194.679 25.267, 194.866 25.672, 194.866 25.873 C 194.866 26.075, 195.008 26.443, 195.182 26.692 C 195.356 26.94, 195.57 27.54, 195.658 28.025 C 195.745 28.51, 195.948 29.157, 196.108 29.464 C 196.268 29.771, 196.532 30.474, 196.693 31.027 C 196.985 32.025, 196.993 32.031, 197.991 32.031 L 198.996 32.031 199.053 20.692 C 199.092 13.043, 199.034 9.21, 198.875 8.912 C 198.635 8.463, 196.106 7.143, 195.486 7.143 C 195.298 7.143, 195.024 6.999, 194.878 6.822 C 194.732 6.646, 194.292 6.434, 193.902 6.351 C 193.511 6.268, 193.041 6.073, 192.857 5.919 C 192.673 5.764, 192.121 5.567, 191.629 5.481 C 191.138 5.394, 190.533 5.194, 190.285 5.034 C 190.037 4.875, 189.384 4.671, 188.834 4.583 C 188.285 4.494, 187.612 4.28, 187.34 4.108 C 187.069 3.936, 186.642 3.795, 186.393 3.795 C 186.143 3.795, 185.361 3.602, 184.655 3.367 C 183.948 3.132, 182.639 2.875, 181.746 2.795 C 180.852 2.715, 179.797 2.517, 179.402 2.354 C 179.006 2.191, 177.628 1.988, 176.339 1.901 C 175.05 1.815, 172.897 1.603, 171.554 1.43 C 168.994 1.101, 161.049 1.049, 158.594 1.346 M 45.675 34.494 C 45.599 34.694, 45.536 35.038, 45.536 35.259 C 45.536 35.479, 45.385 35.785, 45.201 35.938 C 45.017 36.09, 44.865 36.379, 44.864 36.579 C 44.863 36.779, 44.615 37.444, 44.313 38.058 C 44.011 38.672, 43.761 39.337, 43.757 39.538 C 43.753 39.737, 43.599 40.026, 43.415 40.179 C 43.231 40.331, 43.079 40.62, 43.078 40.82 C 43.077 41.02, 42.829 41.685, 42.527 42.299 C 42.225 42.913, 41.975 43.579, 41.971 43.779 C 41.967 43.978, 41.813 44.268, 41.627 44.421 C 41.442 44.575, 41.229 45.088, 41.153 45.56 C 41.078 46.033, 40.878 46.535, 40.709 46.675 C 40.54 46.815, 40.399 47.093, 40.395 47.293 C 40.391 47.493, 40.141 48.158, 39.839 48.772 C 39.537 49.386, 39.289 50.052, 39.288 50.252 C 39.287 50.452, 39.135 50.74, 38.951 50.893 C 38.767 51.046, 38.615 51.334, 38.614 51.534 C 38.613 51.734, 38.365 52.4, 38.063 53.013 C 37.761 53.627, 37.511 54.293, 37.507 54.493 C 37.503 54.693, 37.348 54.982, 37.163 55.135 C 36.978 55.289, 36.765 55.802, 36.689 56.275 C 36.613 56.748, 36.413 57.249, 36.244 57.389 C 36.076 57.529, 35.934 57.807, 35.931 58.007 C 35.927 58.207, 35.677 58.873, 35.375 59.487 C 35.073 60.1, 34.825 60.766, 34.823 60.966 C 34.822 61.166, 34.671 61.454, 34.487 61.607 C 34.302 61.76, 34.151 62.048, 34.15 62.248 C 34.15 62.448, 33.999 62.899, 33.816 63.251 C 33.632 63.603, 33.482 64.13, 33.482 64.423 L 33.482 64.955 45.64 64.955 C 57.526 64.955, 57.802 64.946, 58.033 64.514 C 58.309 63.999, 58.128 63.078, 57.679 62.705 C 57.507 62.562, 57.363 62.232, 57.359 61.971 C 57.355 61.709, 57.105 60.993, 56.803 60.379 C 56.501 59.766, 56.25 59.113, 56.245 58.929 C 56.24 58.744, 56.088 58.399, 55.908 58.16 C 55.728 57.922, 55.577 57.571, 55.573 57.379 C 55.57 57.188, 55.319 56.529, 55.017 55.915 C 54.715 55.301, 54.464 54.648, 54.459 54.464 C 54.454 54.28, 54.303 53.934, 54.122 53.696 C 53.942 53.458, 53.792 53.106, 53.788 52.915 C 53.784 52.723, 53.534 52.065, 53.232 51.451 C 52.93 50.837, 52.679 50.184, 52.673 50 C 52.669 49.816, 52.517 49.47, 52.337 49.232 C 52.156 48.994, 52.006 48.642, 52.002 48.451 C 51.998 48.259, 51.748 47.6, 51.446 46.987 C 51.144 46.373, 50.893 45.72, 50.888 45.536 C 50.883 45.352, 50.731 45.006, 50.551 44.768 C 50.371 44.529, 50.223 44.178, 50.222 43.986 C 50.221 43.795, 50.06 43.337, 49.864 42.969 C 49.669 42.6, 49.365 41.826, 49.19 41.248 C 49.015 40.671, 48.775 40.137, 48.655 40.063 C 48.535 39.99, 48.438 39.758, 48.438 39.548 C 48.438 39.339, 48.237 38.793, 47.991 38.335 C 47.746 37.876, 47.545 37.398, 47.545 37.271 C 47.545 37.143, 47.374 36.666, 47.165 36.209 C 46.957 35.753, 46.73 35.129, 46.661 34.824 C 46.516 34.177, 45.879 33.964, 45.675 34.494" fill="#000" fill-rule="evenodd" clip-path="url(#acme-sil-clip)"/>
</svg>
